<mxfile host="app.diagrams.net" agent="Mozilla/5.0 (Windows NT 10.0; Win64; x64) AppleWebKit/537.36 (KHTML, like Gecko) Chrome/135.0.0.0 Safari/537.36 Edg/135.0.0.0" version="26.0.2">
  <diagram name="Page-1" id="wsKCs8Odx-4BlwIuNgZS">
    <mxGraphModel dx="486" dy="530" grid="1" gridSize="10" guides="1" tooltips="1" connect="1" arrows="1" fold="1" page="1" pageScale="1" pageWidth="850" pageHeight="1100" math="0" shadow="0">
      <root>
        <mxCell id="0" />
        <mxCell id="1" parent="0" />
        <mxCell id="CCkYY4tpkGP_Y9K5vtpR-4" style="edgeStyle=orthogonalEdgeStyle;rounded=0;orthogonalLoop=1;jettySize=auto;html=1;exitX=1;exitY=0.5;exitDx=0;exitDy=0;entryX=0;entryY=0.5;entryDx=0;entryDy=0;" edge="1" parent="1" source="CCkYY4tpkGP_Y9K5vtpR-1" target="CCkYY4tpkGP_Y9K5vtpR-2">
          <mxGeometry relative="1" as="geometry" />
        </mxCell>
        <mxCell id="CCkYY4tpkGP_Y9K5vtpR-6" value="USB" style="edgeLabel;html=1;align=center;verticalAlign=middle;resizable=0;points=[];" vertex="1" connectable="0" parent="CCkYY4tpkGP_Y9K5vtpR-4">
          <mxGeometry x="-0.1492" y="2" relative="1" as="geometry">
            <mxPoint x="6" y="-8" as="offset" />
          </mxGeometry>
        </mxCell>
        <mxCell id="CCkYY4tpkGP_Y9K5vtpR-1" value="PC" style="rounded=0;whiteSpace=wrap;html=1;" vertex="1" parent="1">
          <mxGeometry x="80" y="160" width="120" height="120" as="geometry" />
        </mxCell>
        <mxCell id="CCkYY4tpkGP_Y9K5vtpR-5" style="edgeStyle=orthogonalEdgeStyle;rounded=0;orthogonalLoop=1;jettySize=auto;html=1;exitX=1;exitY=0.5;exitDx=0;exitDy=0;entryX=0;entryY=0.5;entryDx=0;entryDy=0;" edge="1" parent="1" source="CCkYY4tpkGP_Y9K5vtpR-2" target="CCkYY4tpkGP_Y9K5vtpR-3">
          <mxGeometry relative="1" as="geometry" />
        </mxCell>
        <mxCell id="CCkYY4tpkGP_Y9K5vtpR-7" value="UART" style="edgeLabel;html=1;align=center;verticalAlign=middle;resizable=0;points=[];" vertex="1" connectable="0" parent="CCkYY4tpkGP_Y9K5vtpR-5">
          <mxGeometry x="-0.1611" y="1" relative="1" as="geometry">
            <mxPoint x="7" y="-9" as="offset" />
          </mxGeometry>
        </mxCell>
        <mxCell id="CCkYY4tpkGP_Y9K5vtpR-2" value="CH340C" style="rounded=0;whiteSpace=wrap;html=1;" vertex="1" parent="1">
          <mxGeometry x="280" y="160" width="120" height="120" as="geometry" />
        </mxCell>
        <mxCell id="CCkYY4tpkGP_Y9K5vtpR-3" value="ESP8266" style="rounded=0;whiteSpace=wrap;html=1;" vertex="1" parent="1">
          <mxGeometry x="480" y="160" width="120" height="120" as="geometry" />
        </mxCell>
      </root>
    </mxGraphModel>
  </diagram>
</mxfile>
